<svg xmlns="http://www.w3.org/2000/svg" width="1440" height="900" viewBox="0 0 1440 900">
  <defs>
    <linearGradient id="bgLeft" x1="0" y1="0" x2="1" y2="1">
      <stop offset="0%" stop-color="#0f172a"/>
      <stop offset="50%" stop-color="#1e293b"/>
      <stop offset="100%" stop-color="#1a1a2e"/>
    </linearGradient>
    <linearGradient id="glow1" x1="0" y1="0" x2="1" y2="1">
      <stop offset="0%" stop-color="rgba(245,158,11,0.12)"/>
      <stop offset="100%" stop-color="transparent"/>
    </linearGradient>
    <linearGradient id="glow2" x1="1" y1="1" x2="0" y2="0">
      <stop offset="0%" stop-color="rgba(16,185,129,0.08)"/>
      <stop offset="100%" stop-color="transparent"/>
    </linearGradient>
  </defs>
  <rect width="1440" height="900" fill="url(#bgLeft)"/>
  <circle cx="300" cy="200" r="400" fill="url(#glow1)"/>
  <circle cx="1000" cy="700" r="350" fill="url(#glow2)"/>
  <g opacity="0.03" stroke="#fff" stroke-width="1" fill="none">
    <line x1="0" y1="100" x2="1440" y2="100"/>
    <line x1="0" y1="200" x2="1440" y2="200"/>
    <line x1="0" y1="300" x2="1440" y2="300"/>
    <line x1="0" y1="400" x2="1440" y2="400"/>
    <line x1="0" y1="500" x2="1440" y2="500"/>
    <line x1="0" y1="600" x2="1440" y2="600"/>
    <line x1="0" y1="700" x2="1440" y2="700"/>
    <line x1="0" y1="800" x2="1440" y2="800"/>
  </g>
  <g opacity="0.04" fill="none" stroke="#f59e0b" stroke-width="0.8">
    <circle cx="200" cy="150" r="80"/>
    <circle cx="350" cy="300" r="50"/>
    <circle cx="100" cy="500" r="100"/>
    <circle cx="1200" cy="200" r="60"/>
    <circle cx="900" cy="600" r="120"/>
  </g>
  <g opacity="0.05" fill="none" stroke="#f59e0b" stroke-width="0.5">
    <path d="M0,800 Q200,750 400,820 T800,780 T1200,830 T1440,790"/>
    <path d="M0,850 Q300,820 600,860 T1200,840 T1440,870"/>
  </g>
</svg>